<?xml version="1.0" encoding="utf-8"?>
<!-- Generator: Adobe Illustrator 25.0.1, SVG Export Plug-In . SVG Version: 6.00 Build 0)  -->
<svg version="1.1" id="Layer_1" xmlns="http://www.w3.org/2000/svg" xmlns:xlink="http://www.w3.org/1999/xlink" x="0px" y="0px"
	 viewBox="0 0 841.89 595.28" style="enable-background:new 0 0 841.89 595.28;" xml:space="preserve">
<style type="text/css">
	.st0{fill:url(#SVGID_1_);}
	.st1{fill:url(#SVGID_2_);}
</style>
<g>
	<linearGradient id="SVGID_1_" gradientUnits="userSpaceOnUse" x1="412.1417" y1="468.6552" x2="412.1417" y2="126.6203">
		<stop  offset="0" style="stop-color:#ED3424"/>
		<stop  offset="1" style="stop-color:#F05523"/>
	</linearGradient>
	<path class="st0" d="M518.08,163.7c-0.6,0.76-1.51,1.24-2.32,1.83c-4.76,3.49-9.55,6.93-14.28,10.45c-3.09,2.3-6.09,4.72-9.14,7.08
		c-0.43,0.34-0.86,0.68-1.32,0.98c-0.42,0.28-0.89,0.3-1.34,0.04c-0.47-0.28-0.94-0.57-1.4-0.87
		c-11.42-7.58-23.72-13.28-36.85-17.15c-5.8-1.71-11.7-3.06-17.7-3.93c-4.67-0.68-9.34-1.28-14.06-1.4
		c-2.51-0.06-5.02-0.32-7.54-0.3c-4.32,0.02-8.63,0.35-12.94,0.74c-6.43,0.58-12.77,1.67-19.04,3.19
		c-18.35,4.47-35.08,12.41-50.15,23.8c-18.36,13.89-32.4,31.3-42.08,52.18c-4.48,9.66-7.77,19.72-9.84,30.19
		c-0.93,4.71-1.64,9.44-2.14,14.2c-0.7,6.66-0.84,13.35-0.46,20.03c0.75,13.25,3.22,26.18,7.68,38.71
		c6.22,17.49,15.59,33.09,28.1,46.81c11.96,13.13,25.97,23.51,41.94,31.24c10.74,5.2,21.99,8.89,33.72,11.09
		c4.79,0.9,9.61,1.5,14.47,1.95c6.76,0.62,13.53,0.65,20.27,0.21c13.64-0.9,26.88-3.77,39.69-8.65
		c15.54-5.92,29.52-14.37,41.99-25.34c13.57-11.94,24.34-26.05,32.37-42.24c5.69-11.48,9.67-23.53,11.96-36.13
		c0.94-5.18,1.53-10.4,1.93-15.66c0.3-3.93,0.44-7.86,0.3-11.78c-0.13-3.84-0.53-7.68-0.81-11.52c-0.43-5.73-1.52-11.36-2.79-16.95
		c-1.43-6.3-3.33-12.45-5.7-18.45c-0.29-0.72-0.52-1.47-0.82-2.31c2.44-3.11,5.07-6.02,7.68-8.96c2.66-3,5.35-5.98,8.07-8.93
		c2.66-2.87,5.21-5.87,8.07-8.43c0.92,0.13,1.09,0.81,1.34,1.35c1.97,4.28,4.06,8.52,5.85,12.88c3.29,8.01,5.87,16.26,7.82,24.7
		c1.38,5.97,2.49,11.99,3.2,18.08c0.46,3.91,0.71,7.82,1.02,11.73c0.39,4.88,0.34,9.75,0.24,14.62c-0.08,3.69-0.51,7.36-0.77,11.05
		c-0.27,3.92-0.84,7.8-1.47,11.68c-1.09,6.76-2.58,13.42-4.5,19.99c-3.05,10.44-7.05,20.51-12.04,30.18
		c-6.92,13.42-15.46,25.73-25.64,36.91c-9.96,10.94-21.13,20.44-33.52,28.51c-10.58,6.89-21.81,12.5-33.65,16.91
		c-8.05,2.99-16.28,5.32-24.67,7.07c-4.38,0.91-8.81,1.57-13.25,2.17c-4.76,0.64-9.55,0.98-14.32,1.21
		c-5.33,0.26-10.69,0.35-16.03-0.16c-2.66-0.25-5.34-0.32-7.99-0.62c-4.14-0.46-8.28-0.9-12.38-1.6c-8.92-1.51-17.67-3.76-26.23-6.7
		c-9.69-3.33-18.99-7.53-27.95-12.51c-11.4-6.34-21.9-13.93-31.53-22.7c-12.35-11.25-22.89-24-31.52-38.32
		c-6.27-10.41-11.41-21.35-15.34-32.85c-2.64-7.74-4.79-15.63-6.2-23.69c-0.65-3.71-1.27-7.43-1.78-11.16
		c-0.32-2.33-0.36-4.7-0.61-7.04c-0.74-7.06-0.53-14.14-0.38-21.22c0.07-3.29,0.43-6.58,0.76-9.86c0.28-2.81,0.65-5.62,1.05-8.41
		c1.04-7.4,2.71-14.68,4.78-21.85c3.04-10.53,7.09-20.67,12.11-30.41c6.3-12.22,13.95-23.53,23-33.89
		c11.36-13.01,24.33-24.13,39-33.25c9.58-5.96,19.67-10.88,30.22-14.85c9.66-3.64,19.59-6.3,29.74-8.14c3.86-0.7,7.77-1.1,11.66-1.6
		c9-1.17,18.05-1.06,27.09-0.84c3.13,0.08,6.27,0.46,9.39,0.82c3.43,0.39,6.86,0.85,10.27,1.37c9.19,1.39,18.15,3.74,26.95,6.74
		c18.02,6.15,34.56,15.06,49.6,26.75c0.37,0.29,0.71,0.61,1.06,0.92C518.02,163.41,518.02,163.51,518.08,163.7z"/>
	<linearGradient id="SVGID_2_" gradientUnits="userSpaceOnUse" x1="461.1483" y1="396.4889" x2="461.1483" y2="143.6436">
		<stop  offset="0" style="stop-color:#ED3424"/>
		<stop  offset="1" style="stop-color:#F05523"/>
	</linearGradient>
	<path class="st1" d="M408.15,294.62c0.96-0.35,1.31-1.1,1.79-1.7c4.13-5.16,8.16-10.4,12.4-15.46c4.85-5.78,9.82-11.48,14.88-17.08
		c6.86-7.59,13.93-14.98,21.22-22.16c16.67-16.41,34.17-31.87,52.76-46.08c14.45-11.05,29.44-21.29,45.07-30.6
		c10.14-6.04,20.54-11.6,31.19-16.7c1.35-0.65,2.73-1.16,4.28-1.19c2.27-0.05,4.13,0.8,5.77,2.27c4.01,3.58,4.62,10.95-0.1,15.08
		c-6.51,5.7-12.82,11.62-19.16,17.52c-8.7,8.09-17.2,16.39-25.48,24.91c-15.14,15.59-29.38,31.97-42.78,49.07
		c-13.11,16.73-25.39,34.05-37,51.85c-9.67,14.83-18.87,29.94-27.65,45.31c-6.28,11-12.4,22.08-18.3,33.29
		c-0.66,1.25-1.31,2.51-2.02,3.73c-3.55,6.12-8.87,9.4-15.94,9.78c-3.1,0.16-6.11-0.23-8.99-1.47c-4.37-1.89-7.59-4.98-9.82-9.14
		c-2.56-4.79-5.11-9.57-7.67-14.36c-7.15-13.39-14.31-26.77-21.46-40.16c-3.78-7.08-7.55-14.15-11.33-21.23
		c-6.59-12.35-13.18-24.7-19.77-37.05c-2.04-3.82-4.09-7.62-6.13-11.44c-0.85-1.6-1.67-3.2-2.03-5.01
		c-1.08-5.46,0.53-10.02,4.85-13.41c3.21-2.52,6.65-4.77,10.14-6.91c5.66-3.47,11.79-1.99,15.64,1.78c2.81,2.75,5.48,5.64,8.23,8.45
		c10.17,10.41,20.35,20.82,30.52,31.23c4.89,5.01,9.76,10.04,14.66,15.05C406.57,293.44,407.14,294.22,408.15,294.62z"/>
</g>
</svg>
