<?xml version="1.0" encoding="utf-8"?>
<!-- Generator: Adobe Illustrator 25.0.1, SVG Export Plug-In . SVG Version: 6.00 Build 0)  -->
<svg version="1.1" id="Layer_1" xmlns="http://www.w3.org/2000/svg" xmlns:xlink="http://www.w3.org/1999/xlink" x="0px" y="0px"
	 viewBox="0 0 841.89 595.28" style="enable-background:new 0 0 841.89 595.28;" xml:space="preserve">
<style type="text/css">
	.st0{fill:#FFFFFF;}
	.st1{fill:url(#SVGID_1_);}
	.st2{fill:url(#SVGID_2_);}
	.st3{fill:url(#SVGID_3_);}
	.st4{fill:url(#SVGID_4_);}
	.st5{fill:url(#SVGID_5_);}
	.st6{fill:url(#SVGID_6_);}
	.st7{fill:url(#SVGID_7_);}
	.st8{fill:url(#SVGID_8_);}
	.st9{fill:url(#SVGID_9_);}
	.st10{fill:url(#SVGID_10_);}
	.st11{fill:url(#SVGID_11_);}
	.st12{fill:url(#SVGID_12_);}
	.st13{fill:url(#SVGID_13_);}
	.st14{fill:url(#SVGID_14_);}
	.st15{fill:url(#SVGID_15_);}
	.st16{fill:url(#SVGID_16_);}
	.st17{fill:#F15523;}
	.st18{fill:#EE3524;}
</style>
<g>
	<path class="st0" d="M234.13,95.18c-1.98-0.97-3.57-2.33-4.77-4.09l3.18-3.73c2.12,3.04,4.79,4.56,8.01,4.56
		c2.16,0,3.8-0.66,4.91-1.98c1.12-1.32,1.67-3.26,1.67-5.82V62.55h-13.89v-4.78h19.32v26.07c0,4.24-1.01,7.44-3.05,9.58
		c-2.03,2.14-5.02,3.21-8.97,3.21C238.24,96.63,236.1,96.15,234.13,95.18z"/>
	<path class="st0" d="M287.09,94.08c-3.11-1.7-5.55-4.05-7.33-7.05c-1.78-3-2.66-6.35-2.66-10.04c0-3.7,0.89-7.04,2.66-10.04
		c1.77-3,4.22-5.35,7.33-7.05c3.11-1.7,6.6-2.55,10.48-2.55c3.84,0,7.32,0.85,10.43,2.55c3.11,1.7,5.54,4.04,7.3,7.02
		c1.76,2.98,2.63,6.34,2.63,10.07c0,3.73-0.88,7.09-2.63,10.07c-1.76,2.98-4.19,5.32-7.3,7.02c-3.11,1.7-6.59,2.55-10.43,2.55
		C293.69,96.63,290.2,95.78,287.09,94.08z M305.17,89.83c2.25-1.28,4.02-3.05,5.32-5.3c1.3-2.25,1.95-4.77,1.95-7.55
		c0-2.78-0.65-5.3-1.95-7.55c-1.3-2.25-3.07-4.02-5.32-5.3c-2.25-1.28-4.78-1.92-7.6-1.92c-2.82,0-5.37,0.64-7.66,1.92
		c-2.29,1.28-4.08,3.05-5.38,5.3c-1.3,2.25-1.95,4.77-1.95,7.55c0,2.78,0.65,5.3,1.95,7.55c1.3,2.25,3.09,4.02,5.38,5.3
		c2.29,1.28,4.84,1.92,7.66,1.92C300.39,91.75,302.92,91.11,305.17,89.83z"/>
	<path class="st0" d="M368.48,96.19l-8.29-11.8c-1.02,0.07-1.83,0.11-2.42,0.11h-9.49v11.69h-5.49V57.77h14.98
		c4.98,0,8.89,1.19,11.75,3.57c2.85,2.38,4.28,5.65,4.28,9.82c0,2.96-0.73,5.49-2.2,7.57c-1.46,2.09-3.55,3.6-6.26,4.56l9.11,12.9
		H368.48z M365.57,77.59c1.83-1.5,2.74-3.64,2.74-6.42c0-2.78-0.92-4.91-2.74-6.39c-1.83-1.48-4.48-2.22-7.96-2.22h-9.33v17.29h9.33
		C361.09,79.84,363.74,79.09,365.57,77.59z"/>
	<path class="st0" d="M432.2,57.77v38.42h-4.5l-23.05-28.65v28.65h-5.49V57.77h4.5l23.05,28.65V57.77H432.2z"/>
	<path class="st0" d="M484.66,86.59h-20.42l-4.23,9.6h-5.65l17.4-38.42h5.43l17.45,38.42h-5.76L484.66,86.59z M482.74,82.2
		l-8.29-18.82l-8.29,18.82H482.74z"/>
	<path class="st0" d="M516.82,57.77h16.19c4.06,0,7.66,0.81,10.81,2.42c3.15,1.61,5.59,3.87,7.33,6.78
		c1.74,2.91,2.61,6.25,2.61,10.02s-0.87,7.11-2.61,10.02c-1.74,2.91-4.18,5.17-7.33,6.78c-3.15,1.61-6.75,2.41-10.81,2.41h-16.19
		V57.77z M532.68,91.42c3.11,0,5.85-0.6,8.2-1.81c2.36-1.21,4.18-2.9,5.46-5.08c1.28-2.18,1.92-4.69,1.92-7.55
		c0-2.85-0.64-5.37-1.92-7.55c-1.28-2.18-3.1-3.87-5.46-5.08c-2.36-1.21-5.09-1.81-8.2-1.81h-10.37v28.87H532.68z"/>
	<path class="st0" d="M602.55,86.59h-20.42l-4.23,9.6h-5.65l17.4-38.42h5.43l17.45,38.42h-5.76L602.55,86.59z M600.63,82.2
		l-8.29-18.82l-8.29,18.82H600.63z"/>
</g>
<g>
	<linearGradient id="SVGID_1_" gradientUnits="userSpaceOnUse" x1="112.8596" y1="314.6808" x2="112.8596" y2="132.4193">
		<stop  offset="0" style="stop-color:#EE3524"/>
		<stop  offset="1" style="stop-color:#F15523"/>
	</linearGradient>
	<path class="st1" d="M140.98,142.05c-2.95-2.95-6.42-5.29-10.41-7.03c-3.99-1.73-8.25-2.6-12.76-2.6H78.75
		c-2.43,0-3.65,1.22-3.65,3.64v174.97c0,2.43,1.21,3.64,3.65,3.64h39.06c4.51,0,8.76-0.87,12.76-2.6c3.99-1.73,7.46-4.08,10.41-7.03
		c2.95-2.95,5.29-6.42,7.03-10.41c1.73-3.99,2.6-8.24,2.6-12.76V165.23c0-4.51-0.87-8.76-2.6-12.76
		C146.27,148.48,143.93,145.01,140.98,142.05z M120.15,280.57c0,1.74-0.61,3.21-1.82,4.43c-1.22,1.22-2.69,1.82-4.42,1.82h-8.33
		V160.28h8.33c1.73,0,3.21,0.61,4.42,1.82c1.21,1.22,1.82,2.69,1.82,4.43V280.57z"/>
	<linearGradient id="SVGID_2_" gradientUnits="userSpaceOnUse" x1="203.3369" y1="314.6808" x2="203.3369" y2="132.4193">
		<stop  offset="0" style="stop-color:#EE3524"/>
		<stop  offset="1" style="stop-color:#F15523"/>
	</linearGradient>
	<path class="st2" d="M231.59,132.42h-56.5c-2.43,0-3.65,1.22-3.65,3.64v174.97c0,2.43,1.21,3.64,3.65,3.64h56.5
		c2.43,0,3.65-1.21,3.65-3.64v-23.17c0-2.43-1.22-3.65-3.65-3.65h-29.68v-53.38h25.78c2.43,0,3.65-1.21,3.65-3.64v-23.17
		c0-2.43-1.22-3.64-3.65-3.64h-25.78v-37.49h29.68c2.43,0,3.65-1.21,3.65-3.65v-23.17C235.23,133.64,234.02,132.42,231.59,132.42z"
		/>
	<linearGradient id="SVGID_3_" gradientUnits="userSpaceOnUse" x1="288.6093" y1="316.504" x2="288.6093" y2="130.5962">
		<stop  offset="0" style="stop-color:#EE3524"/>
		<stop  offset="1" style="stop-color:#F15523"/>
	</linearGradient>
	<path class="st3" d="M316.73,140.23c-2.95-2.95-6.42-5.29-10.41-7.03c-3.99-1.73-8.25-2.6-12.76-2.6h-9.9
		c-4.52,0-8.77,0.87-12.76,2.6c-3.99,1.74-7.47,4.08-10.41,7.03c-2.95,2.95-5.3,6.42-7.03,10.41c-1.74,3.99-2.6,8.25-2.6,12.76
		v31.24c0,4,0.56,7.2,1.69,9.63c1.13,2.43,2.99,4.86,5.6,7.29l33.59,25.78c1.56,1.39,2.6,2.95,3.12,4.69
		c0.52,1.74,0.86,3.73,1.04,5.99v34.37c0,1.74-0.61,3.21-1.82,4.43c-1.22,1.22-2.69,1.82-4.42,1.82h-2.09
		c-1.74,0-3.21-0.61-4.42-1.82c-1.22-1.21-1.82-2.69-1.82-4.43v-32.03c0-2.43-1.13-3.3-3.38-2.6l-23.7,6.25
		c-2.26,0.7-3.38,2.26-3.38,4.69v25c0,4.52,0.87,8.77,2.6,12.76c1.73,3.99,4.08,7.47,7.03,10.41c2.95,2.95,6.42,5.3,10.41,7.03
		c3.99,1.73,8.24,2.6,12.76,2.6h9.9c4.51,0,8.76-0.87,12.76-2.6c3.99-1.73,7.46-4.08,10.41-7.03c2.95-2.95,5.29-6.42,7.03-10.41
		c1.73-3.99,2.6-8.24,2.6-12.76v-44.78c-0.35-3.12-0.91-5.94-1.69-8.46c-0.78-2.51-2.56-4.99-5.34-7.42l-34.11-25.52
		c-1.39-1.39-2.34-2.77-2.87-4.17c-0.52-1.39-0.87-3.03-1.04-4.95v-23.69c0-1.73,0.61-3.21,1.82-4.43c1.21-1.21,2.69-1.82,4.42-1.82
		h2.09c1.73,0,3.21,0.61,4.42,1.82c1.21,1.22,1.82,2.69,1.82,4.43v16.92c0,2.43,1.13,3.3,3.38,2.6l23.7-6.25
		c2.25-0.69,3.38-2.25,3.38-4.69v-9.89c0-4.51-0.87-8.76-2.6-12.76C322.02,146.65,319.68,143.18,316.73,140.23z"/>
	<linearGradient id="SVGID_4_" gradientUnits="userSpaceOnUse" x1="361.121" y1="314.6808" x2="361.121" y2="132.4193">
		<stop  offset="0" style="stop-color:#EE3524"/>
		<stop  offset="1" style="stop-color:#F15523"/>
	</linearGradient>
	<path class="st4" d="M372.71,132.42h-23.17c-2.43,0-3.65,1.22-3.65,3.64v174.97c0,2.43,1.21,3.64,3.65,3.64h23.17
		c2.43,0,3.65-1.21,3.65-3.64V136.06C376.35,133.64,375.14,132.42,372.71,132.42z"/>
	<linearGradient id="SVGID_5_" gradientUnits="userSpaceOnUse" x1="434.9322" y1="316.504" x2="434.9322" y2="130.5962">
		<stop  offset="0" style="stop-color:#EE3524"/>
		<stop  offset="1" style="stop-color:#F15523"/>
	</linearGradient>
	<path class="st5" d="M463.05,140.23c-2.95-2.95-6.42-5.29-10.41-7.03c-3.99-1.73-8.25-2.6-12.76-2.6h-9.9
		c-4.52,0-8.77,0.87-12.76,2.6c-3.99,1.74-7.47,4.08-10.41,7.03c-2.95,2.95-5.3,6.42-7.03,10.41c-1.74,3.99-2.6,8.25-2.6,12.76
		V283.7c0,4.52,0.87,8.77,2.6,12.76c1.73,3.99,4.08,7.47,7.03,10.41c2.95,2.95,6.42,5.3,10.41,7.03c3.99,1.73,8.24,2.6,12.76,2.6
		h9.9c4.51,0,8.76-0.87,12.76-2.6c3.99-1.73,7.46-4.08,10.41-7.03c2.95-2.95,5.29-6.42,7.03-10.41c1.73-3.99,2.6-8.24,2.6-12.76
		v-73.69c0-2.43-1.22-3.64-3.65-3.64h-34.11v29.68h7.29v46.35c0,1.74-0.61,3.21-1.82,4.43c-1.22,1.22-2.69,1.82-4.42,1.82h-2.09
		c-1.74,0-3.21-0.61-4.42-1.82c-1.22-1.21-1.82-2.69-1.82-4.43V164.71c0-1.73,0.61-3.21,1.82-4.43c1.21-1.21,2.69-1.82,4.42-1.82
		h2.09c1.73,0,3.21,0.61,4.42,1.82c1.21,1.22,1.82,2.69,1.82,4.43v17.71c0,2.43,1.13,3.3,3.38,2.6l23.7-8.59
		c2.25-0.69,3.38-2.25,3.38-4.69v-8.33c0-4.51-0.87-8.76-2.6-12.76C468.35,146.65,466,143.18,463.05,140.23z"/>
	<linearGradient id="SVGID_6_" gradientUnits="userSpaceOnUse" x1="535.1735" y1="314.6808" x2="535.1735" y2="132.4193">
		<stop  offset="0" style="stop-color:#EE3524"/>
		<stop  offset="1" style="stop-color:#F15523"/>
	</linearGradient>
	<path class="st6" d="M573.19,132.42h-23.17c-2.43,0-3.65,1.22-3.65,3.64v83.32l-27.08-83.58c-0.35-0.87-1-1.65-1.95-2.34
		c-0.96-0.69-1.95-1.04-3-1.04h-17.18c-2.43,0-3.65,1.22-3.65,3.64v174.97c0,2.43,1.21,3.64,3.65,3.64h23.17
		c2.43,0,3.65-1.21,3.65-3.64v-85.92l27.6,86.18c0.35,0.87,1,1.65,1.95,2.34c0.95,0.7,1.95,1.04,3,1.04h16.66
		c2.43,0,3.65-1.21,3.65-3.64V136.06C576.83,133.64,575.62,132.42,573.19,132.42z"/>
	<linearGradient id="SVGID_7_" gradientUnits="userSpaceOnUse" x1="632.1576" y1="314.6808" x2="632.1576" y2="132.4193">
		<stop  offset="0" style="stop-color:#EE3524"/>
		<stop  offset="1" style="stop-color:#F15523"/>
	</linearGradient>
	<path class="st7" d="M660.41,132.42h-56.5c-2.43,0-3.65,1.22-3.65,3.64v174.97c0,2.43,1.21,3.64,3.65,3.64h56.5
		c2.43,0,3.65-1.21,3.65-3.64v-23.17c0-2.43-1.22-3.65-3.65-3.65h-29.68v-53.38h25.78c2.43,0,3.65-1.21,3.65-3.64v-23.17
		c0-2.43-1.22-3.64-3.65-3.64h-25.78v-37.49h29.68c2.43,0,3.65-1.21,3.65-3.65v-23.17C664.05,133.64,662.84,132.42,660.41,132.42z"
		/>
	<linearGradient id="SVGID_8_" gradientUnits="userSpaceOnUse" x1="726.3538" y1="314.6808" x2="726.3538" y2="132.4193">
		<stop  offset="0" style="stop-color:#EE3524"/>
		<stop  offset="1" style="stop-color:#F15523"/>
	</linearGradient>
	<path class="st8" d="M766.64,311.04l-23.17-74.21c5.38-2.78,9.72-6.73,13.02-11.85c3.3-5.12,4.95-10.89,4.95-17.31v-42.44
		c0-4.51-0.87-8.76-2.6-12.76c-1.74-3.99-4.08-7.46-7.03-10.41c-2.95-2.95-6.43-5.29-10.41-7.03c-3.99-1.73-8.25-2.6-12.76-2.6
		h-39.06c-2.43,0-3.64,1.22-3.64,3.64v174.97c0,2.43,1.21,3.64,3.64,3.64h23.17c1.91,0,3.12-0.87,3.64-2.6v-64.83l19.01,63.79
		c0.35,1.04,1,1.91,1.95,2.6c0.95,0.7,1.95,1.04,2.99,1.04h23.7C766.29,314.68,767.16,313.47,766.64,311.04z M730.97,206.37
		c0,1.74-0.61,3.21-1.82,4.43c-1.22,1.22-2.69,1.82-4.43,1.82h-8.33v-52.33h8.33c1.73,0,3.21,0.61,4.43,1.82
		c1.21,1.22,1.82,2.69,1.82,4.43V206.37z"/>
</g>
<g>
	<path class="st0" d="M195.84,357.59v174.88c0,2.43-1.22,3.64-3.64,3.64h-23.16c-2.43,0-3.64-1.21-3.64-3.64V401.83
		c-2.26,1.74-5.08,3.47-8.46,5.2c-3.38,1.74-6.55,2.86-9.5,3.38c-1.21,0.35-2.17,0.17-2.86-0.52c-0.87-0.52-1.3-1.39-1.3-2.6v-19.52
		c0-0.87,0.3-1.65,0.91-2.34c0.61-0.69,1.34-1.13,2.21-1.3c3.99-1.56,7.63-3.73,10.93-6.51c2.95-2.25,5.68-5.16,8.2-8.72
		c2.51-3.55,4.12-7.85,4.82-12.88c0.52-1.39,1.47-2.08,2.86-2.08h19.26C194.71,354.3,195.84,355.51,195.84,357.59z"/>
	<path class="st0" d="M292.13,505.15c0,4.51-0.87,8.76-2.6,12.75c-1.74,3.99-4.08,7.46-7.03,10.41c-2.95,2.95-6.42,5.29-10.41,7.03
		c-3.99,1.73-8.24,2.6-12.75,2.6h-9.89c-4.51,0-8.76-0.87-12.75-2.6c-3.99-1.73-7.46-4.08-10.41-7.03
		c-2.95-2.95-5.29-6.42-7.03-10.41c-1.74-3.99-2.6-8.24-2.6-12.75V384.92c0-4.51,0.87-8.76,2.6-12.75
		c1.73-3.99,4.07-7.46,7.03-10.41c2.95-2.95,6.42-5.29,10.41-7.03c3.99-1.73,8.24-2.6,12.75-2.6h9.89c4.51,0,8.76,0.87,12.75,2.6
		c3.99,1.74,7.46,4.08,10.41,7.03c2.95,2.95,5.29,6.42,7.03,10.41c1.73,3.99,2.6,8.24,2.6,12.75V505.15z M261.68,386.22
		c0-1.73-0.61-3.21-1.82-4.42c-1.21-1.21-2.69-1.82-4.42-1.82h-2.08c-1.74,0-3.21,0.61-4.42,1.82c-1.22,1.21-1.82,2.69-1.82,4.42
		v117.63c0,1.74,0.6,3.21,1.82,4.42c1.21,1.22,2.69,1.82,4.42,1.82h2.08c1.73,0,3.21-0.61,4.42-1.82c1.21-1.21,1.82-2.69,1.82-4.42
		V386.22z"/>
	<path class="st0" d="M388.42,505.15c0,4.51-0.87,8.76-2.6,12.75c-1.74,3.99-4.08,7.46-7.03,10.41c-2.95,2.95-6.42,5.29-10.41,7.03
		c-3.99,1.73-8.24,2.6-12.75,2.6h-9.89c-4.51,0-8.76-0.87-12.75-2.6c-3.99-1.73-7.46-4.08-10.41-7.03
		c-2.95-2.95-5.29-6.42-7.03-10.41c-1.74-3.99-2.6-8.24-2.6-12.75V384.92c0-4.51,0.87-8.76,2.6-12.75
		c1.73-3.99,4.07-7.46,7.03-10.41c2.95-2.95,6.42-5.29,10.41-7.03c3.99-1.73,8.24-2.6,12.75-2.6h9.89c4.51,0,8.76,0.87,12.75,2.6
		c3.99,1.74,7.46,4.08,10.41,7.03c2.95,2.95,5.29,6.42,7.03,10.41c1.73,3.99,2.6,8.24,2.6,12.75V505.15z M357.97,386.22
		c0-1.73-0.61-3.21-1.82-4.42c-1.21-1.21-2.69-1.82-4.42-1.82h-2.08c-1.74,0-3.21,0.61-4.42,1.82c-1.22,1.21-1.82,2.69-1.82,4.42
		v117.63c0,1.74,0.6,3.21,1.82,4.42c1.21,1.22,2.69,1.82,4.42,1.82h2.08c1.73,0,3.21-0.61,4.42-1.82c1.21-1.21,1.82-2.69,1.82-4.42
		V386.22z"/>
	<path class="st0" d="M497.71,354.73c3.99,1.74,7.46,4.08,10.41,7.03c2.95,2.95,5.29,6.42,7.03,10.41c1.73,3.99,2.6,8.24,2.6,12.75
		v20.82c0,2.43-1.13,3.99-3.38,4.69l-23.68,3.64c-2.26,0.7-3.38-0.17-3.38-2.6v-25.24c0-1.73-0.61-3.21-1.82-4.42
		c-1.21-1.21-2.69-1.82-4.42-1.82h-2.08c-1.74,0-3.21,0.61-4.42,1.82c-1.22,1.21-1.82,2.69-1.82,4.42v117.63
		c0,1.74,0.6,3.21,1.82,4.42c1.21,1.22,2.69,1.82,4.42,1.82h2.08c1.73,0,3.21-0.61,4.42-1.82c1.21-1.21,1.82-2.69,1.82-4.42v-36.43
		c0-2.43,1.13-3.29,3.38-2.6l23.68,3.12c2.25,0.7,3.38,2.26,3.38,4.69v32.53c0,4.51-0.87,8.76-2.6,12.75
		c-1.74,3.99-4.08,7.46-7.03,10.41c-2.95,2.95-6.42,5.29-10.41,7.03c-3.99,1.73-8.24,2.6-12.75,2.6h-9.89
		c-4.51,0-8.76-0.87-12.75-2.6c-3.99-1.73-7.46-4.08-10.41-7.03c-2.95-2.95-5.29-6.42-7.03-10.41c-1.74-3.99-2.6-8.24-2.6-12.75
		V384.92c0-4.51,0.87-8.76,2.6-12.75c1.73-3.99,4.07-7.46,7.03-10.41c2.95-2.95,6.42-5.29,10.41-7.03c3.99-1.73,8.24-2.6,12.75-2.6
		h9.89C489.47,352.13,493.72,353,497.71,354.73z"/>
	<path class="st0" d="M601.03,509.31v23.16c0,2.43-1.21,3.64-3.64,3.64h-56.47c-2.43,0-3.64-1.21-3.64-3.64V357.59
		c0-2.43,1.21-3.64,3.64-3.64h56.47c2.43,0,3.64,1.22,3.64,3.64v23.16c0,2.43-1.21,3.64-3.64,3.64h-29.67v37.47h25.76
		c2.43,0,3.64,1.22,3.64,3.64v23.16c0,2.43-1.21,3.64-3.64,3.64h-25.76v53.35h29.67C599.82,505.67,601.03,506.89,601.03,509.31z"/>
	<path class="st0" d="M665.83,353.95c4.51,0,8.76,0.87,12.75,2.6c3.99,1.74,7.46,4.08,10.41,7.03c2.95,2.95,5.29,6.42,7.03,10.41
		c1.73,3.99,2.6,8.24,2.6,12.75v42.42c0,4.51-0.87,8.76-2.6,12.75c-1.74,3.99-4.08,7.46-7.03,10.41c-2.95,2.95-6.42,5.3-10.41,7.03
		c-3.99,1.74-8.24,2.6-12.75,2.6h-12.23v70.53c0,2.43-1.22,3.64-3.64,3.64h-23.16c-2.43,0-3.64-1.21-3.64-3.64V357.59
		c0-2.43,1.21-3.64,3.64-3.64H665.83z M668.17,388.04c0-1.73-0.61-3.21-1.82-4.42c-1.21-1.21-2.69-1.82-4.42-1.82h-8.33v52.31h8.33
		c1.73,0,3.21-0.6,4.42-1.82c1.21-1.21,1.82-2.69,1.82-4.42V388.04z"/>
</g>
</svg>
