<svg xmlns="http://www.w3.org/2000/svg" width="2203.266" height="484.06" viewBox="0 0 2203.266 484.06"><g transform="translate(-4430.74 700.76)"><path d="M4530.3-220.14h-99.56l9.61-480.62h76.21l-6.87,207.35c-2.06,54.93-3.43,106.42-8.24,148.99,7.55-42.57,19.22-94.06,32.27-148.99l50.12-207.35h76.9l-8.24,207.35c-2.06,54.93-4.81,106.42-8.93,148.99,7.55-42.57,19.22-94.06,32.96-148.99l51.5-207.35h70.72L4673.8-220.14h-95.44l7.55-186.07c1.37-39.14,6.87-83.08,10.99-124.96-7.55,41.88-15.1,85.82-24.03,124.96Z" fill="#fdfdfd"/><path d="M4826.91-220.14h-70.03l52.87-379h70.03Zm-2.74-480.62h70.03l-9.61,63.17h-69.35Z" fill="#fdfdfd"/><path d="M4868.1-220.14l67.29-480.62h70.03l-67.29,480.62H4868.1Z" fill="#fdfdfd"/><path d="M4979.32-220.14l67.29-480.62h70.03l-67.29,480.62h-70.03Z" fill="#fdfdfd"/><path d="M5160.57-220.14h-70.03l52.87-379h70.03Z" fill="#fdfdfd"/><path d="M5157.83-700.76h70.03l-9.61,63.17H5148.9Z" fill="#fdfdfd"/><path d="M5268.83-700.76H5684l-10,63.17H5259.9Z" fill="#fdfdfd"/><path d="M5613.83-700.76h70.03l-9.61,63.17H5604.9Z" fill="#fdfdfd"/><path d="M5342.51-538.72h-8.93c-19.22,0-22.66,8.24-26.09,31.58L5302-470.06h-65.91l6.87-46c10.3-67.29,28.15-86.51,89.95-86.51h32.27c61.79,0,75.53,19.22,65.91,86.51l-32.27,232.07c-2.75,21.97-6.18,41.2-3.43,63.85h-66.6c-2.75-7.55-2.75-21.29,0-42.57-10.3,28.84-28.84,46-64.54,46h-14.42c-41.88,0-52.18-18.54-44.63-67.97l8.93-61.11c6.87-48.06,19.91-74.84,73.47-93.38,61.11-21.29,65.91-24.03,72.09-67.29C5363.11-530.48,5361.74-538.72,5342.51-538.72Zm2.75,137.32c-6.18,3.43-13.73,6.18-21.28,8.93-30.9,11.67-36.39,21.28-40.51,50.81l-4.12,30.21c-3.43,22.66-2.06,30.9,16.48,30.9h8.24c17.85,0,26.09-13.05,29.52-37.08Z" fill="#fdfdfd"/><path d="M5552.6-220.14l40.51-287.69c3.43-22.66,2.06-30.9-17.17-30.9h-7.55c-18.54,0-26.09,13.04-29.52,37.08l-39.14,281.51H5429.7l52.87-379h65.91l-6.87,48.06c10.3-31.58,28.15-51.49,65.91-51.49h15.1c41.88,0,50.81,18.54,43.94,67.97l-43.94,314.46H5552.6Z" fill="#fdfdfd"/><path d="M5826.55-700.76h77.59l-57.67,407.84H5922l-9.61,72.78H5759.28Z" fill="#fdfdfd"/><path d="M6073.72-350.59h65.23l-6.18,46.69c-8.93,67.29-28.15,87.2-89.26,87.2h-33.64c-61.79,0-75.53-19.91-65.91-87.2l30.21-212.16c9.61-67.29,28.15-86.51,89.94-86.51h33.64c61.11,0,74.84,19.22,65.23,86.51l-17.85,127.71H6025.66l-10.3,76.21c-3.43,23.34-2.06,31.58,17.85,31.58h8.93c19.23,0,23.34-8.24,26.09-31.58Zm21.97-156.55c3.43-23.35,2.06-31.58-17.17-31.58h-9.61c-19.23,0-22.66,8.24-26.09,31.58l-8.93,60.42h53.55Z" fill="#fdfdfd"/><path d="M6229.57-220.14h-70.03l52.87-379h70.03Z" fill="#fdfdfd"/><path d="M6226.83-700.76h70.03l-9.61,63.17H6217.9Z" fill="#fdfdfd"/><path d="M6276.32-220.14l67.29-480.62h70.03l-67.29,480.62h-70.03Z" fill="#fdfdfd"/><path d="M6396-599l38.17-.14-8.24,58.36L6389-541" fill="#fdfdfd"/><path d="M6322.26-540.78h-24.04l8.24-58.36h24.04" fill="#fdfdfd"/><path d="M6541.96-350.59h65.23l-6.18,46.69c-8.93,67.29-28.15,87.2-89.26,87.2h-33.64c-61.79,0-75.53-19.91-65.91-87.2l30.21-212.16c9.61-67.29,28.15-86.51,89.94-86.51h33.64c61.11,0,74.84,19.22,65.23,86.51l-17.85,127.71H6493.9l-10.3,76.21c-3.43,23.34-2.06,31.58,17.85,31.58h8.93c19.23,0,23.34-8.24,26.09-31.58Zm21.97-156.55c3.43-23.35,2.06-31.58-17.17-31.58h-9.61c-19.23,0-22.66,8.24-26.09,31.58l-8.93,60.42h53.55Z" fill="#fdfdfd"/></g></svg>